<svg width="117" height="23" viewBox="0 0 117 23" fill="none" xmlns="http://www.w3.org/2000/svg">
<path d="M7.00781 10.3945C5.07812 9.83984 3.67188 9.16016 2.78906 8.35547C1.91406 7.54297 1.47656 6.54297 1.47656 5.35547C1.47656 4.01172 2.01172 2.90234 3.08203 2.02734C4.16016 1.14453 5.55859 0.703125 7.27734 0.703125C8.44922 0.703125 9.49219 0.929687 10.4062 1.38281C11.3281 1.83594 12.0391 2.46094 12.5391 3.25781C13.0469 4.05469 13.3008 4.92578 13.3008 5.87109H11.0391C11.0391 4.83984 10.7109 4.03125 10.0547 3.44531C9.39844 2.85156 8.47266 2.55469 7.27734 2.55469C6.16797 2.55469 5.30078 2.80078 4.67578 3.29297C4.05859 3.77734 3.75 4.45312 3.75 5.32031C3.75 6.01562 4.04297 6.60547 4.62891 7.08984C5.22266 7.56641 6.22656 8.00391 7.64062 8.40234C9.0625 8.80078 10.1719 9.24219 10.9688 9.72656C11.7734 10.2031 12.3672 10.7617 12.75 11.4023C13.1406 12.043 13.3359 12.7969 13.3359 13.6641C13.3359 15.0469 12.7969 16.1562 11.7188 16.9922C10.6406 17.8203 9.19922 18.2344 7.39453 18.2344C6.22266 18.2344 5.12891 18.0117 4.11328 17.5664C3.09766 17.1133 2.3125 16.4961 1.75781 15.7148C1.21094 14.9336 0.9375 14.0469 0.9375 13.0547H3.19922C3.19922 14.0859 3.57812 14.9023 4.33594 15.5039C5.10156 16.0977 6.12109 16.3945 7.39453 16.3945C8.58203 16.3945 9.49219 16.1523 10.125 15.668C10.7578 15.1836 11.0742 14.5234 11.0742 13.6875C11.0742 12.8516 10.7812 12.207 10.1953 11.7539C9.60938 11.293 8.54688 10.8398 7.00781 10.3945ZM23.7188 16.7461C22.875 17.7383 21.6367 18.2344 20.0039 18.2344C18.6523 18.2344 17.6211 17.8438 16.9102 17.0625C16.207 16.2734 15.8516 15.1094 15.8438 13.5703V5.32031H18.0117V13.5117C18.0117 15.4336 18.793 16.3945 20.3555 16.3945C22.0117 16.3945 23.1133 15.7773 23.6602 14.543V5.32031H25.8281V18H23.7656L23.7188 16.7461ZM39.8438 11.8008C39.8438 13.7305 39.4023 15.2852 38.5195 16.4648C37.6367 17.6445 36.4414 18.2344 34.9336 18.2344C33.3945 18.2344 32.1836 17.7461 31.3008 16.7695V22.875H29.1328V5.32031H31.1133L31.2188 6.72656C32.1016 5.63281 33.3281 5.08594 34.8984 5.08594C36.4219 5.08594 37.625 5.66016 38.5078 6.80859C39.3984 7.95703 39.8438 9.55469 39.8438 11.6016V11.8008ZM37.6758 11.5547C37.6758 10.125 37.3711 8.99609 36.7617 8.16797C36.1523 7.33984 35.3164 6.92578 34.2539 6.92578C32.9414 6.92578 31.957 7.50781 31.3008 8.67188V14.7305C31.9492 15.8867 32.9414 16.4648 34.2773 16.4648C35.3164 16.4648 36.1406 16.0547 36.75 15.2344C37.3672 14.4062 37.6758 13.1797 37.6758 11.5547ZM47.8711 18.2344C46.1523 18.2344 44.7539 17.6719 43.6758 16.5469C42.5977 15.4141 42.0586 13.9023 42.0586 12.0117V11.6133C42.0586 10.3555 42.2969 9.23438 42.7734 8.25C43.2578 7.25781 43.9297 6.48438 44.7891 5.92969C45.6562 5.36719 46.5938 5.08594 47.6016 5.08594C49.25 5.08594 50.5312 5.62891 51.4453 6.71484C52.3594 7.80078 52.8164 9.35547 52.8164 11.3789V12.2812H44.2266C44.2578 13.5312 44.6211 14.543 45.3164 15.3164C46.0195 16.082 46.9102 16.4648 47.9883 16.4648C48.7539 16.4648 49.4023 16.3086 49.9336 15.9961C50.4648 15.6836 50.9297 15.2695 51.3281 14.7539L52.6523 15.7852C51.5898 17.418 49.9961 18.2344 47.8711 18.2344ZM47.6016 6.86719C46.7266 6.86719 45.9922 7.1875 45.3984 7.82812C44.8047 8.46094 44.4375 9.35156 44.2969 10.5H50.6484V10.3359C50.5859 9.23438 50.2891 8.38281 49.7578 7.78125C49.2266 7.17188 48.5078 6.86719 47.6016 6.86719ZM61.4648 7.26562C61.1367 7.21094 60.7812 7.18359 60.3984 7.18359C58.9766 7.18359 58.0117 7.78906 57.5039 9V18H55.3359V5.32031H57.4453L57.4805 6.78516C58.1914 5.65234 59.1992 5.08594 60.5039 5.08594C60.9258 5.08594 61.2461 5.14062 61.4648 5.25V7.26562ZM63.3516 18V0.9375H69.3281C71.3984 0.9375 72.9688 1.33594 74.0391 2.13281C75.1094 2.92187 75.6445 4.08203 75.6445 5.61328C75.6445 6.44922 75.4297 7.1875 75 7.82812C74.5703 8.46094 73.9727 8.92578 73.207 9.22266C74.082 9.44141 74.7695 9.88281 75.2695 10.5469C75.7773 11.2109 76.0312 12.0234 76.0312 12.9844C76.0312 14.625 75.5078 15.8672 74.4609 16.7109C73.4141 17.5547 71.9219 17.9844 69.9844 18H63.3516ZM66.8672 10.5703V15.1758H69.8789C70.707 15.1758 71.3516 14.9805 71.8125 14.5898C72.2812 14.1914 72.5156 13.6445 72.5156 12.9492C72.5156 11.3867 71.707 10.5938 70.0898 10.5703H66.8672ZM66.8672 8.08594H69.4688C71.2422 8.05469 72.1289 7.34766 72.1289 5.96484C72.1289 5.19141 71.9023 4.63672 71.4492 4.30078C71.0039 3.95703 70.2969 3.78516 69.3281 3.78516H66.8672V8.08594ZM85.8047 18C85.6484 17.6953 85.5352 17.3164 85.4648 16.8633C84.6445 17.7773 83.5781 18.2344 82.2656 18.2344C81.0234 18.2344 79.9922 17.875 79.1719 17.1562C78.3594 16.4375 77.9531 15.5312 77.9531 14.4375C77.9531 13.0938 78.4492 12.0625 79.4414 11.3438C80.4414 10.625 81.8828 10.2617 83.7656 10.2539H85.3242V9.52734C85.3242 8.94141 85.1719 8.47266 84.8672 8.12109C84.5703 7.76953 84.0977 7.59375 83.4492 7.59375C82.8789 7.59375 82.4297 7.73047 82.1016 8.00391C81.7812 8.27734 81.6211 8.65234 81.6211 9.12891H78.2344C78.2344 8.39453 78.4609 7.71484 78.9141 7.08984C79.3672 6.46484 80.0078 5.97656 80.8359 5.625C81.6641 5.26562 82.5938 5.08594 83.625 5.08594C85.1875 5.08594 86.4258 5.48047 87.3398 6.26953C88.2617 7.05078 88.7227 8.15234 88.7227 9.57422V15.0703C88.7305 16.2734 88.8984 17.1836 89.2266 17.8008V18H85.8047ZM83.0039 15.6445C83.5039 15.6445 83.9648 15.5352 84.3867 15.3164C84.8086 15.0898 85.1211 14.7891 85.3242 14.4141V12.2344H84.0586C82.3633 12.2344 81.4609 12.8203 81.3516 13.9922L81.3398 14.1914C81.3398 14.6133 81.4883 14.9609 81.7852 15.2344C82.082 15.5078 82.4883 15.6445 83.0039 15.6445ZM94.4414 5.32031L94.5469 6.78516C95.4531 5.65234 96.668 5.08594 98.1914 5.08594C99.5352 5.08594 100.535 5.48047 101.191 6.26953C101.848 7.05859 102.184 8.23828 102.199 9.80859V18H98.8125V9.89062C98.8125 9.17188 98.6562 8.65234 98.3438 8.33203C98.0312 8.00391 97.5117 7.83984 96.7852 7.83984C95.832 7.83984 95.1172 8.24609 94.6406 9.05859V18H91.2539V5.32031H94.4414ZM109.383 12.9141L108.164 14.1328V18H104.777V0H108.164V9.97266L108.82 9.12891L112.066 5.32031H116.133L111.551 10.6055L116.531 18H112.641L109.383 12.9141Z" fill="white"/>
</svg>
